<svg xmlns="http://www.w3.org/2000/svg" width="207" height="51" viewBox="0 0 207 51">
  <g fill="none" fill-rule="evenodd">
    <path fill="#414141" d="M0.69696,1.49536 L5.58912,1.49536 L5.58912,10.49568 L13.86816,1.49536 L19.92064,1.49536 L11.20256,11.1856 C11.9552038,12.2309386 13.3454832,14.1804657 15.37344,17.03424 C17.4013968,19.8880143 18.917115,22.0152463 19.92064,23.416 L14.21312,23.416 L7.78432,14.76064 L5.58912,17.20672 L5.58912,23.416 L0.69696,23.416 L0.69696,1.49536 Z M40.5208838,7.32832 C39.2664775,5.9484731 37.7246263,5.25856 35.8952838,5.25856 C34.0659413,5.25856 32.5240901,5.9484731 31.2696838,7.32832 C30.0152775,8.7081669 29.3880838,10.3754569 29.3880838,12.33024 C29.3880838,14.2850231 30.0152775,15.9470865 31.2696838,17.31648 C32.5240901,18.6858735 34.0659413,19.37056 35.8952838,19.37056 C37.7246263,19.37056 39.2664775,18.6858735 40.5208838,17.31648 C41.7752901,15.9470865 42.4024838,14.2850231 42.4024838,12.33024 C42.4024838,10.3754569 41.7752901,8.7081669 40.5208838,7.32832 Z M35.8796038,23.63552 C32.6390543,23.63552 29.9107615,22.5536108 27.6946438,20.38976 C25.4785261,18.2259092 24.3704838,15.5342028 24.3704838,12.31456 C24.3704838,9.09491724 25.4785261,6.40321082 27.6946438,4.23936 C29.9107615,2.07550918 32.6390543,0.9936 35.8796038,0.9936 C39.1201533,0.9936 41.8484461,2.07550918 44.0645638,4.23936 C46.2806815,6.40321082 47.3887238,9.09491724 47.3887238,12.31456 C47.3887238,15.5342028 46.2806815,18.2259092 44.0645638,20.38976 C41.8484461,22.5536108 39.1201533,23.63552 35.8796038,23.63552 Z M73.1006476,8.77088 C73.1006476,12.2832176 71.7103682,14.5515682 68.9297676,15.576 L74.4804876,23.416 L68.4593676,23.416 L63.5985676,16.42272 L60.2116876,16.42272 L60.2116876,23.416 L55.3195276,23.416 L55.3195276,1.49536 L63.6299276,1.49536 C67.0377313,1.49536 69.468107,2.07028758 70.9211276,3.22016 C72.3741482,4.37003242 73.1006476,6.22025391 73.1006476,8.77088 Z M67.2049676,11.37376 C67.811264,10.8301839 68.1144076,9.96779257 68.1144076,8.78656 C68.1144076,7.60532743 67.8008107,6.7952022 67.1736076,6.35616 C66.5464045,5.9171178 65.4488154,5.6976 63.8808076,5.6976 L60.2116876,5.6976 L60.2116876,12.18912 L63.7867276,12.18912 C65.4592693,12.18912 66.5986712,11.9173361 67.2049676,11.37376 Z M91.5056914,23.416 L81.9095314,23.416 L81.9095314,1.49536 L90.4394514,1.49536 C91.9238321,1.49536 93.2043527,1.67306489 94.2810514,2.02848 C95.3577501,2.38389511 96.1678753,2.86474364 96.7114514,3.47104 C97.6940696,4.60000564 98.1853714,5.87529956 98.1853714,7.29696 C98.1853714,9.01131524 97.6313503,10.2866092 96.5232914,11.12288 C96.1469695,11.4155748 95.8856388,11.5985063 95.7392914,11.67168 C95.592944,11.7448537 95.3316133,11.8650658 94.9552914,12.03232 C96.3142315,12.3250148 97.3961407,12.9365287 98.2010514,13.86688 C99.0059621,14.7972313 99.4084114,15.9523131 99.4084114,17.33216 C99.4084114,18.8583543 98.88575,20.2068208 97.8404114,21.3776 C96.6278187,22.7365401 94.5162664,23.416 91.5056914,23.416 Z M86.8016914,10.37024 L89.1223314,10.37024 C90.4812715,10.37024 91.4900081,10.2238948 92.1485714,9.9312 C92.8071347,9.6385052 93.1364114,9.00608486 93.1364114,8.03392 C93.1364114,7.06175514 92.8332678,6.41888157 92.2269714,6.10528 C91.620675,5.79167843 90.5962586,5.63488 89.1536914,5.63488 L86.8016914,5.63488 L86.8016914,10.37024 Z M86.8016914,19.27648 L90.1572114,19.27648 C91.5579651,19.27648 92.6085146,19.1040017 93.3088914,18.75904 C94.0092682,18.4140783 94.3594514,17.7346184 94.3594514,16.72064 C94.3594514,15.7066616 93.9883618,15.037655 93.2461714,14.7136 C92.503981,14.389545 91.3175395,14.22752 89.6868114,14.22752 L86.8016914,14.22752 L86.8016914,19.27648 Z M107.307855,1.49536 L112.200015,1.49536 L112.200015,23.416 L107.307855,23.416 L107.307855,1.49536 Z M130.667779,5.72896 L130.667779,23.416 L125.775619,23.416 L125.775619,5.72896 L119.566339,5.72896 L119.566339,1.49536 L136.877059,1.49536 L136.877059,5.72896 L130.667779,5.72896 Z" transform="translate(70 14)"/>
    <g fill="#0C6EA0">
      <g transform="translate(12.371)">
        <polygon points="0 -.256 6.186 -.256 6.186 50.744 0 50.744" transform="matrix(1 0 0 -1 0 50.744)"/>
        <polygon points="29.072 -.256 35.258 -.256 35.258 50.744 29.072 50.744" transform="matrix(1 0 0 -1 0 50.744)"/>
        <polygon points="29.146 -.256 35.258 -.256 6.111 50.744 0 50.744" transform="matrix(1 0 0 -1 0 50.744)"/>
        <polygon points="28.875 -.256 34.987 -.256 5.84 50.744 -.271 50.744" transform="rotate(-180 17.493 25.372)"/>
      </g>
      <rect width="6.186" height="51"/>
      <polygon points="0 0 18.557 25.5 0 51 6.186 51 24.742 25.5 6.186 0"/>
      <g transform="matrix(-1 0 0 1 60 0)">
        <g>
          <rect width="6.186" height="51"/>
          <polygon points="0 0 18.557 25.5 0 51 6.186 51 24.742 25.5 6.186 0"/>
        </g>
      </g>
    </g>
  </g>
</svg>
